<?xml version="1.0" standalone="no"?>
<!DOCTYPE svg PUBLIC "-//W3C//DTD SVG 1.1//EN" "http://www.w3.org/Graphics/SVG/1.1/DTD/svg11.dtd" >
<svg xmlns="http://www.w3.org/2000/svg" xmlns:xlink="http://www.w3.org/1999/xlink" version="1.1">
<metadata></metadata>
<defs>
<font id="visionheavy_italic" horiz-adv-x="1327" >
<font-face units-per-em="2048" ascent="1638" descent="-410" />
<missing-glyph horiz-adv-x="528" />
<glyph unicode="&#xfb01;" horiz-adv-x="1142" d="M111 -367l168 1198h-160l33 240h159q24 166 149.5 282.5t291.5 116.5q64 0 132.5 -18t106.5 -53l-108 -180q-47 24 -99 24q-75 0 -132.5 -48.5t-67.5 -123.5h575l-151 -1071h-275l117 831h-303l-168 -1198h-268z" />
<glyph unicode="&#xfb02;" horiz-adv-x="1323" d="M113 -371l166 1202h-160l33 240h161q24 165 147.5 283.5t287.5 118.5q107 0 191 -39h263l-137 -990q-10 -55 -10 -102q0 -109 73 -109q50 0 97 31l67 -213q-111 -71 -266 -71q-139 0 -198.5 81t-59.5 226q0 69 10 151l56 393h-285l-168 -1202h-268zM584 1071h284l23 161 l-8 -13q-40 22 -95 22q-76 0 -135 -47.5t-69 -122.5z" />
<glyph unicode="&#xfb04;" horiz-adv-x="2131" d="M63 -371l166 1202h-159l32 240h162q24 165 147 283.5t287 118.5q64 0 135.5 -18.5t110.5 -55.5l-110 -180q-40 22 -95 22q-77 0 -135.5 -47.5t-68.5 -122.5h299h4h155q24 165 147 283.5t287 118.5q95 0 174 -31h279l-139 -989q-8 -66 -8 -103q0 -23 2.5 -39t9 -33.5 t22 -26.5t39.5 -9q52 0 97 30l67 -213q-114 -71 -266 -71q-260 0 -260 307q0 77 12 151l54 385h-281l-166 -1202h-270l165 1202h-155h-4h-299l-168 -1202h-269zM1264 1071h280l21 151l-2 -3q-40 22 -93 22q-77 0 -136.5 -47.5t-69.5 -122.5z" />
<glyph horiz-adv-x="0" />
<glyph horiz-adv-x="682" />
<glyph horiz-adv-x="0" />
<glyph horiz-adv-x="0" />
<glyph unicode="&#xd;" horiz-adv-x="512" />
<glyph unicode=" "  horiz-adv-x="528" />
<glyph unicode="&#x09;" horiz-adv-x="528" />
<glyph unicode="&#xa0;" horiz-adv-x="528" />
<glyph unicode="!" horiz-adv-x="608" d="M80 115q0 72 58 125t130 53q60 0 102 -38t42 -97q0 -72 -58 -125t-131 -53q-60 0 -101.5 37.5t-41.5 97.5zM170 422l55 1063h422l-244 -1063h-233z" />
<glyph unicode="&#x22;" horiz-adv-x="643" d="M76 918l8 432h227l-110 -432h-125zM395 918l11 432h227l-113 -432h-125z" />
<glyph unicode="#" horiz-adv-x="1482" d="M76 279l90 237h166l65 213h-180l90 238h164l86 286h301l-88 -286h209l88 286h297l-86 -286h176l-88 -238h-162l-65 -213h174l-90 -237h-156l-86 -281h-299l86 281h-209l-86 -281h-301l86 281h-182zM610 500h242l76 245h-242z" />
<glyph unicode="$" horiz-adv-x="1144" d="M59 102l152 260q45 -34 148.5 -74t154.5 -40q46 0 91.5 13t82.5 47.5t37 82.5q0 33 -26.5 58.5t-68.5 44t-93.5 37t-102.5 43.5t-93 57.5t-68.5 85t-26.5 119.5q0 165 106 277t273 142l22 162h172l-20 -153q93 -3 187.5 -33t146.5 -86l-125 -215q-34 34 -114 57t-138 23 q-43 0 -87 -11.5t-81 -42t-37 -75.5q0 -34 27.5 -59t71 -42t96.5 -33.5t106 -39.5t96.5 -52.5t71 -80t27.5 -115.5q0 -117 -61 -219t-157.5 -166.5t-210.5 -87.5l-22 -162h-172l22 151q-101 5 -211 38t-176 89z" />
<glyph unicode="%" horiz-adv-x="1474" d="M109 877q0 70 22 140.5t61.5 129t102.5 95t137 36.5q112 0 168.5 -77t56.5 -193q0 -96 -35 -185.5t-110 -152t-174 -62.5q-114 0 -171.5 76t-57.5 193zM270 0l756 1253h250l-756 -1253h-250zM299 897q0 -102 66 -102q37 0 62 36t33.5 76t8.5 78q0 41 -14 73t-49 32 q-28 0 -50 -21t-33.5 -53t-17.5 -62.5t-6 -56.5zM887 246q0 70 21.5 140.5t61 129t102.5 95t138 36.5q112 0 169 -76t57 -192q0 -71 -21.5 -141.5t-60.5 -129t-101.5 -95t-136.5 -36.5q-114 0 -171.5 76t-57.5 193zM1075 266q0 -40 15 -70t51 -30q38 0 63.5 36t34 75.5 t8.5 76.5q0 41 -14 74t-49 33q-28 0 -50.5 -21.5t-34.5 -53.5t-18 -63.5t-6 -56.5z" />
<glyph unicode="&#x26;" horiz-adv-x="1347" d="M109 332q0 151 96 277.5t241 183.5q-26 84 -26 137q0 69 27 127.5t71 97.5t103 66.5t121 40t126 12.5q62 0 131.5 -15.5t108.5 -46.5l-117 -186q-35 35 -127 35q-60 0 -103.5 -40.5t-43.5 -100.5q0 -109 233 -449q68 109 92 270h238q-41 -271 -188 -460 q143 -186 223 -281h-361q-26 30 -82 98q-161 -102 -350 -102q-77 0 -149.5 21.5t-132 61.5t-95.5 106t-36 147zM367 389q0 -71 56.5 -116.5t129.5 -45.5q92 0 182 54q-126 171 -203 315q-68 -25 -116.5 -81.5t-48.5 -125.5z" />
<glyph unicode="'" horiz-adv-x="403" d="M109 1350h288l-127 -432h-157z" />
<glyph unicode="(" horiz-adv-x="727" d="M35 381q0 368 189 696.5t505 536.5q73 -125 137 -238q-244 -161 -390 -416t-146 -540q0 -199 79 -373t230 -295q-30 -35 -64.5 -74.5t-76 -86.5t-64.5 -74q-195 157 -297 382.5t-102 481.5z" />
<glyph unicode=")" horiz-adv-x="708" d="M-139 -248q244 161 390 416.5t146 540.5q0 198 -79 372t-230 295l207 238q195 -159 296 -383.5t101 -482.5q0 -368 -188.5 -696.5t-503.5 -534.5z" />
<glyph unicode="*" horiz-adv-x="876" d="M109 758l186 119l-152 120l121 142l144 -111l30 215h176l-30 -215l176 111l82 -142l-189 -120l154 -119l-121 -142l-143 109l-31 -217h-178l31 217l-175 -109z" />
<glyph unicode="+" horiz-adv-x="894" d="M43 459l35 262h276l41 291h291l-41 -291h275l-35 -262h-277l-41 -289h-291l41 289h-274z" />
<glyph unicode="," horiz-adv-x="571" d="M115 154q0 93 72 158t167 65q83 0 126.5 -58.5t43.5 -144.5q0 -118 -88.5 -252t-197.5 -176l-74 137q35 17 70 49.5t45 65.5q-74 -3 -119 40t-45 116z" />
<glyph unicode="-" horiz-adv-x="1089" d="M109 442l36 260h842l-37 -260h-841z" />
<glyph unicode="." horiz-adv-x="555" d="M111 145q0 88 66.5 155t154.5 67q72 0 120 -47.5t48 -118.5q0 -87 -67 -154t-154 -67q-72 0 -120 46.5t-48 118.5z" />
<glyph unicode="/" horiz-adv-x="1026" d="M18 -111l748 1532h250l-748 -1532h-250z" />
<glyph unicode="0" horiz-adv-x="1193" d="M109 483q0 108 24 217.5t75 213t121.5 183.5t172.5 128.5t219 48.5q105 0 188.5 -41.5t134.5 -112.5t78 -160.5t27 -189.5q0 -90 -17 -181.5t-49.5 -180.5t-84.5 -166t-117.5 -135.5t-153 -92.5t-186.5 -34q-85 0 -156.5 26.5t-121.5 73t-85.5 110.5t-52 138t-16.5 155z M389 502q0 -52 8 -95.5t27.5 -85t58 -65t92.5 -23.5q66 0 119 36.5t84.5 92t52.5 126.5t29 134t8 121q0 51 -8 95t-26.5 86.5t-56.5 67t-91 24.5q-66 0 -119 -37t-85.5 -93t-54 -127.5t-30 -135t-8.5 -121.5z" />
<glyph unicode="1" horiz-adv-x="626" d="M76 1126l315 127h258l-176 -1253h-293l137 969l-211 -76z" />
<glyph unicode="2" horiz-adv-x="1087" d="M76 0l18 129q10 69 52 138t100 127t125.5 114t133.5 106.5t120 96.5t87 91.5t33 84.5q0 67 -46 99t-117 32q-113 0 -269 -94l-67 204q84 65 200 101.5t226 36.5q72 0 137.5 -15.5t123 -47.5t92 -90t34.5 -134q0 -79 -33.5 -153t-85 -129t-117 -113.5t-125.5 -105 t-114 -104t-80 -110.5h485l-37 -264h-876z" />
<glyph unicode="3" horiz-adv-x="1060" d="M76 102l112 211q54 -31 122 -52t124 -21q43 0 85.5 8.5t84.5 26.5t68 53t26 82q0 27 -13 49t-32 35.5t-50.5 23t-58 14t-65 6.5t-61 2t-57 -0.5t-42.5 -0.5l29 213l322 256h-412l35 245h739l-35 -245l-264 -228q31 0 82 -22q91 -39 137.5 -116t46.5 -179 q0 -148 -78.5 -260t-202 -167.5t-269.5 -55.5q-95 0 -199 33t-174 89z" />
<glyph unicode="4" horiz-adv-x="1146" d="M76 295l28 205l562 753h364l-100 -714h186l-35 -244h-186l-41 -295h-291l41 295h-528zM401 539h238l57 417z" />
<glyph unicode="5" horiz-adv-x="1038" d="M84 98l127 240q59 -39 134 -65.5t138 -26.5q87 0 155.5 56t68.5 142q0 34 -16 60t-40.5 42t-62 26.5t-72 15t-79 6.5t-75.5 1t-68.5 -2t-51.5 -1l116 661h666l-33 -245h-444l-31 -179q81 5 147 0.5t132.5 -24.5t111.5 -56t73 -99t28 -150q0 -144 -73 -264t-196 -188 t-268 -68q-95 0 -202.5 32.5t-184.5 85.5z" />
<glyph unicode="6" horiz-adv-x="999" d="M109 315q0 43 8.5 89t17.5 81t33.5 85t37 76t47.5 80t46 71t52.5 75.5t47.5 67.5l219 313h287l-311 -479q18 6 37 6q155 0 247.5 -82t92.5 -235q0 -210 -137.5 -346.5t-348.5 -136.5q-163 0 -269.5 88t-106.5 247zM373 354q0 -67 38 -110t105 -43q86 -1 141.5 66.5 t55.5 156.5q0 69 -38 114.5t-106 45.5q-87 0 -141.5 -70t-54.5 -160z" />
<glyph unicode="7" horiz-adv-x="962" d="M63 0l592 1004h-489l35 249h786l-33 -237l-587 -1016h-304z" />
<glyph unicode="8" horiz-adv-x="1038" d="M109 307q0 129 66.5 232.5t182.5 162.5q-96 75 -96 203q0 163 123 269t287 106q134 0 227.5 -73.5t93.5 -202.5q0 -92 -42.5 -171.5t-119.5 -130.5q73 -44 111.5 -114.5t38.5 -157.5q0 -131 -69.5 -236t-181.5 -161t-241 -56q-158 0 -269 88t-111 242zM385 358 q0 -63 38.5 -101t100.5 -38q77 0 134 55.5t57 131.5q0 63 -40.5 105t-103.5 42q-72 0 -129 -61t-57 -134zM498 909q0 -47 30.5 -77.5t77.5 -30.5q60 0 105 43.5t45 103.5q0 49 -31.5 80t-81.5 31q-57 0 -101 -46.5t-44 -103.5z" />
<glyph unicode="9" horiz-adv-x="1017" d="M109 797q0 207 140 342t347 135q106 0 189.5 -37t134.5 -114.5t51 -184.5q0 -43 -8.5 -89t-17.5 -80.5t-33.5 -85t-36.5 -75.5t-47.5 -80.5t-46 -71t-53 -75.5t-48.5 -68l-217 -313h-301l311 479q-18 -6 -41 -6q-143 0 -233 90t-90 234zM371 829q0 -70 35.5 -114.5 t103.5 -44.5q88 0 143.5 70t55.5 159q0 68 -39 112t-105 44q-87 0 -140.5 -68t-53.5 -158z" />
<glyph unicode=":" horiz-adv-x="647" d="M117 145q0 88 67.5 155t155.5 67q72 0 120 -47.5t48 -118.5q0 -88 -67.5 -154.5t-155.5 -66.5q-71 0 -119.5 47t-48.5 118zM213 817q0 88 66.5 153.5t154.5 65.5q71 0 119.5 -47t48.5 -117q0 -89 -67.5 -155t-155.5 -66q-71 0 -118.5 47t-47.5 119z" />
<glyph unicode=";" horiz-adv-x="649" d="M115 96q0 87 66 156.5t151 69.5q93 0 142.5 -56t49.5 -151q0 -115 -89 -249t-197 -175l-74 135q38 21 72 52t43 63q-74 -3 -119 39.5t-45 115.5zM215 817q0 88 66.5 153.5t154.5 65.5q71 0 119.5 -47t48.5 -117q0 -89 -67.5 -155t-155.5 -66q-71 0 -118.5 47t-47.5 119z " />
<glyph unicode="&#x3c;" horiz-adv-x="927" d="M76 553l30 227l793 377l-41 -280l-473 -209l416 -209l-41 -283z" />
<glyph unicode="=" horiz-adv-x="1032" d="M76 324l37 260h841l-36 -260h-842zM135 754l37 258h842l-37 -258h-842z" />
<glyph unicode="&#x3e;" horiz-adv-x="942" d="M76 156l39 280l477 236l-412 233l41 281l690 -402l-30 -227z" />
<glyph unicode="?" horiz-adv-x="886" d="M76 115q0 72 57.5 125t130.5 53q60 0 101 -38t41 -97q0 -72 -57 -125t-130 -53q-60 0 -101.5 37.5t-41.5 97.5zM137 1376q58 42 176.5 69.5t202.5 27.5q97 0 175 -30.5t128.5 -99.5t50.5 -167q0 -36 -6 -66q-23 -133 -103 -227t-208 -146q-70 -28 -107 -28l-38 -279h-244 l63 459h117q79 5 148 65t69 138q0 62 -51.5 98.5t-116.5 36.5q-41 0 -105 -21t-104 -45z" />
<glyph unicode="@" horiz-adv-x="1650" d="M109 479q0 168 68.5 324t183 270t271 182t324.5 68q132 0 248.5 -38t206.5 -109t142.5 -181.5t52.5 -246.5q0 -74 -16.5 -153.5t-52.5 -158t-85 -140t-120.5 -100t-153.5 -38.5q-60 0 -124 32.5t-87 83.5q-101 -116 -277 -116q-87 0 -153.5 52t-98.5 129t-32 163 q0 84 28 166.5t77.5 149.5t125 108t162.5 41q61 0 124 -25.5t93 -71.5l10 76h242q-6 -43 -26 -167.5t-32 -225t-12 -170.5q0 -25 2 -41.5t9.5 -35t23.5 -27.5t41 -9q53 0 100 56t74.5 134t43 152t15.5 121q0 117 -46.5 212.5t-125 156t-179.5 93t-214 32.5 q-142 0 -277.5 -60t-235.5 -159t-161 -234t-61 -278q0 -156 72.5 -282t199.5 -196.5t283 -70.5q132 0 309 76l31 -91q-75 -37 -172.5 -59.5t-181.5 -22.5q-182 0 -327.5 79t-228.5 223t-83 327zM641 535q0 -73 39.5 -119.5t110.5 -46.5q67 0 116 37.5t58 101.5 q2 12 6.5 42.5t7 52t2.5 40.5q0 56 -39 87.5t-96 31.5q-95 0 -150 -66t-55 -161z" />
<glyph unicode="A" horiz-adv-x="1226" d="M12 0l547 1253h412l196 -1253h-293l-51 279h-389l-129 -279h-293zM539 541h254l-66 440z" />
<glyph unicode="B" horiz-adv-x="1167" d="M84 0l176 1253h483q148 0 246 -74.5t98 -217.5q0 -161 -126 -281q76 -30 115.5 -93.5t39.5 -148.5q0 -112 -43.5 -198t-118.5 -137.5t-167.5 -77t-198.5 -25.5h-504zM408 229h235q68 0 119 55t51 124q0 57 -35 93t-92 36h-235zM485 776h152q77 0 125.5 38t48.5 112 q0 53 -36 77.5t-91 24.5h-164z" />
<glyph unicode="C" horiz-adv-x="1210" d="M94 512q0 203 89 377t253.5 280.5t368.5 106.5q99 0 211.5 -36t171.5 -99l-150 -244q-42 42 -113.5 69t-133.5 27q-117 0 -208.5 -61t-138.5 -159t-47 -214q0 -136 77.5 -215.5t213.5 -79.5q65 0 144.5 28.5t130.5 69.5l81 -247q-73 -59 -195 -95t-224 -36 q-235 0 -383 146t-148 382z" />
<glyph unicode="D" horiz-adv-x="1253" d="M84 0l176 1253h418q122 0 220 -28t171.5 -86t113.5 -152.5t40 -220.5q0 -157 -52.5 -297t-145.5 -243.5t-229 -164.5t-294 -61h-418zM414 279h108q118 0 205.5 61t130.5 157t43 212q0 266 -280 266h-109z" />
<glyph unicode="E" horiz-adv-x="1183" d="M84 0l176 1253h901l-39 -278h-610l-29 -209h482l-35 -248h-481l-35 -239h610l-39 -279h-901z" />
<glyph unicode="F" horiz-adv-x="1132" d="M84 0l176 1253h901l-39 -278h-610l-29 -205h435l-39 -278h-435l-69 -492h-291z" />
<glyph unicode="G" horiz-adv-x="1277" d="M94 514q0 154 57.5 294t155.5 242.5t236.5 163t292.5 60.5q116 0 235.5 -33.5t183.5 -103.5l-149 -246q-42 43 -115 71.5t-135 28.5q-183 0 -311.5 -126.5t-128.5 -309.5q0 -150 92.5 -221.5t247.5 -71.5q48 0 90 25l53 375h291l-76 -539q-9 -10 -59 -39 q-196 -104 -400 -104q-248 0 -404.5 144t-156.5 390z" />
<glyph unicode="H" horiz-adv-x="1296" d="M84 0l176 1253h291l-62 -446h433l63 446h291l-176 -1253h-291l74 528h-434l-74 -528h-291z" />
<glyph unicode="I" horiz-adv-x="573" d="M84 0l176 1253h291l-176 -1253h-291z" />
<glyph unicode="J" horiz-adv-x="970" d="M37 109l156 245q31 -32 84.5 -55t97.5 -23q146 0 176 218l106 759h291l-88 -630q-8 -57 -15 -100t-19.5 -99t-26.5 -98.5t-35 -91t-46 -83.5t-59.5 -69t-74.5 -55t-92.5 -34t-112.5 -13q-219 0 -342 129z" />
<glyph unicode="K" horiz-adv-x="1187" d="M84 0l176 1253h291l-59 -432l423 432h334l-508 -555l387 -698h-350l-321 584l-82 -584h-291z" />
<glyph unicode="L" horiz-adv-x="806" d="M84 0l176 1253h291l-137 -974h372l-38 -279h-664z" />
<glyph unicode="M" horiz-adv-x="1574" d="M84 0l176 1253h268l316 -444l442 444h266l-176 -1253h-291l119 840l-416 -434l-294 428l-119 -834h-291z" />
<glyph unicode="N" horiz-adv-x="1296" d="M84 0l176 1253h293l328 -729l102 729h293l-176 -1253h-293l-332 711l-100 -711h-291z" />
<glyph unicode="O" d="M94 500q0 120 31 234.5t91.5 211.5t143.5 170.5t193.5 115.5t234.5 42q230 0 369 -145t139 -377q0 -152 -48.5 -291t-135.5 -246t-218.5 -171t-287.5 -64q-234 0 -373 143t-139 377zM414 520q0 -59 12 -108.5t37.5 -90.5t71 -64.5t106.5 -23.5q89 0 157 47.5t105.5 123.5 t55.5 158t18 165q0 58 -11.5 107.5t-36.5 91.5t-70.5 66t-106.5 24q-71 0 -130 -32.5t-96.5 -83.5t-63.5 -118t-37 -132.5t-11 -129.5z" />
<glyph unicode="P" horiz-adv-x="1183" d="M84 0l176 1253h559q152 0 245 -106t93 -260q0 -120 -61.5 -235.5t-169 -190t-228.5 -74.5h-268l-55 -387h-291zM469 666h236q70 0 119.5 52.5t49.5 123.5q0 56 -35.5 94.5t-90.5 38.5h-236z" />
<glyph unicode="Q" horiz-adv-x="1325" d="M94 496q0 120 31 234.5t91.5 211.5t143.5 170.5t193.5 115.5t234.5 42q230 0 369 -144t139 -376q0 -145 -41.5 -279t-132 -248.5t-217.5 -175.5l225 -293h-366l-170 228h-20q-212 0 -343 139q-137 146 -137 375zM414 518q0 -60 12 -110t37.5 -91t71 -64.5t106.5 -23.5 q89 0 157 47.5t105.5 123.5t55.5 158t18 165q0 58 -11.5 107.5t-36.5 91.5t-70.5 66t-106.5 24q-71 0 -130 -32.5t-96.5 -83.5t-63.5 -117.5t-37 -132t-11 -128.5z" />
<glyph unicode="R" horiz-adv-x="1200" d="M84 0l176 1253h561q151 0 246.5 -89.5t95.5 -239.5q0 -129 -71 -241.5t-189 -162.5l221 -520h-338l-180 469h-166l-65 -469h-291zM475 711h232q70 0 118.5 50t48.5 120q0 54 -35 90.5t-89 36.5h-234z" />
<glyph unicode="S" horiz-adv-x="1144" d="M59 109l152 260q47 -35 149.5 -75t153.5 -40q47 0 92.5 13t82 47.5t36.5 82.5q0 32 -26.5 57.5t-68.5 44t-92.5 37t-101.5 44t-93 58t-68.5 85t-26.5 119.5q0 105 42 189t114 135.5t162.5 78.5t191.5 27q105 0 210.5 -29t164.5 -92l-125 -217q-35 35 -114.5 58.5 t-137.5 23.5q-32 0 -65.5 -7t-66 -21.5t-53 -42t-20.5 -62.5q0 -32 27.5 -56t71 -41t96.5 -34t106 -40t96.5 -53.5t71 -80.5t27.5 -115q0 -103 -47.5 -194.5t-124 -154t-174 -98.5t-197.5 -36q-115 0 -244 33t-201 96z" />
<glyph unicode="T" horiz-adv-x="1200" d="M158 983l37 270h1034l-37 -270h-373l-137 -983h-291l137 983h-370z" />
<glyph unicode="U" horiz-adv-x="1230" d="M109 391q0 33 8 103l106 759h285l-107 -759q-4 -32 -4 -48q0 -86 48 -138t133 -52q98 0 161.5 68.5t77.5 169.5l107 759h284l-106 -759q-33 -232 -183 -373t-380 -141q-203 0 -316.5 105.5t-113.5 305.5z" />
<glyph unicode="V" horiz-adv-x="1212" d="M141 1253h326l141 -811l365 811h325l-583 -1253h-340z" />
<glyph unicode="W" horiz-adv-x="2078" d="M141 1253h322l147 -796l383 784h314l168 -784l368 796h322l-586 -1253h-338l-160 752l-366 -752h-340z" />
<glyph unicode="X" horiz-adv-x="1380" d="M59 0l471 655l-260 598h295l195 -415l313 415h295l-432 -598l289 -655h-295l-228 436l-348 -436h-295z" />
<glyph unicode="Y" horiz-adv-x="1189" d="M125 1253h295l215 -462l346 462h295l-533 -723l-73 -530h-293l76 530z" />
<glyph unicode="Z" horiz-adv-x="1269" d="M84 0l37 268l710 715h-577l37 270h958l-37 -270l-698 -715h596l-37 -268h-989z" />
<glyph unicode="[" horiz-adv-x="651" d="M25 -350l286 2042h486l-37 -262h-195l-213 -1520h195l-37 -260h-485z" />
<glyph unicode="\" horiz-adv-x="679" d="M35 1438h291l333 -1618h-292z" />
<glyph unicode="]" horiz-adv-x="651" d="M-111 -424l37 260h195l213 1522h-195l37 260h486l-287 -2042h-486z" />
<glyph unicode="^" horiz-adv-x="837" d="M76 698l313 678h295l123 -678h-244l-59 449l-187 -449h-241z" />
<glyph unicode="_" horiz-adv-x="1361" d="M76 -346l37 260h1220l-37 -260h-1220z" />
<glyph unicode="`" horiz-adv-x="655" d="M356 1526h275l61 -258h-225z" />
<glyph unicode="a" horiz-adv-x="1241" d="M111 434q0 89 20.5 181t63.5 178.5t102.5 154.5t143.5 109t180 41q77 0 150 -34.5t99 -98.5l17 104h297l-68 -475q-24 -164 -24 -246q0 -27 1.5 -45.5t8 -38.5t17 -32t29.5 -20t46 -7l-90 -225q-222 0 -301 161q-73 -85 -153 -123t-191 -38q-86 0 -155 41.5t-109.5 108.5 t-62 145t-21.5 159zM416 477q0 -97 45.5 -156t138.5 -59q57 0 119 33.5t72 85.5q33 183 43 311v10q0 54 -52 88.5t-108 34.5q-63 0 -114 -33t-81.5 -85t-46.5 -111.5t-16 -118.5z" />
<glyph unicode="b" horiz-adv-x="1165" d="M76 0l200 1434h271l-62 -437q38 44 121.5 70.5t151.5 26.5q92 0 165 -37.5t118 -101.5t68.5 -143.5t23.5 -168.5q0 -90 -24 -183t-71.5 -179t-111.5 -153t-151 -107.5t-183 -40.5q-88 0 -131.5 22t-104.5 88l-12 -90h-268zM391 336q23 -37 66.5 -60.5t87.5 -23.5 q87 0 156 50.5t104 128t35 163.5q0 102 -57 172t-156 70q-48 0 -97.5 -23t-78.5 -61z" />
<glyph unicode="c" horiz-adv-x="1110" d="M111 440q0 175 78 324t221 238.5t319 89.5q100 0 200.5 -41.5t151.5 -118.5l-123 -193q-32 44 -93.5 68t-121.5 24q-135 0 -238.5 -98.5t-103.5 -232.5q0 -107 68.5 -176.5t175.5 -69.5q65 0 137 26.5t121 69.5l68 -194q-76 -76 -192 -126t-222 -50q-198 0 -322 130 t-124 330z" />
<glyph unicode="d" horiz-adv-x="1247" d="M111 436q0 128 38 246t108 210.5t179.5 148t241.5 55.5q58 0 122.5 -25.5t88.5 -69.5l61 433h269l-203 -1434h-268l12 90q-65 -60 -121.5 -85t-142.5 -25q-90 0 -164.5 39.5t-121.5 104.5t-73 145.5t-26 166.5zM426 469q0 -101 47.5 -167t144.5 -66q45 0 94 25.5t81 62.5 l59 411q-16 39 -61.5 61.5t-90.5 22.5q-85 0 -149.5 -55.5t-94.5 -133.5t-30 -161z" />
<glyph unicode="e" horiz-adv-x="1079" d="M111 426q0 124 43.5 244t119 213.5t187.5 151t239 57.5q151 0 250 -86t99 -234q0 -65 -25.5 -121t-68.5 -95t-99 -66.5t-116.5 -40.5t-121.5 -13q-127 0 -212 45v-8q0 -105 50 -175q52 -72 158 -73q74 0 154 36.5t133 92.5l68 -209q-68 -78 -185.5 -121.5t-228.5 -43.5 q-202 0 -323 122t-121 324zM449 672q51 -25 133 -25q34 0 65 5t62.5 17.5t50 38.5t18.5 62q0 44 -36 69t-83 25q-139 0 -210 -192z" />
<glyph unicode="f" horiz-adv-x="878" d="M113 -371l166 1202h-160l33 240h161q24 165 147.5 283.5t287.5 118.5q64 0 135 -18.5t110 -55.5l-110 -180q-40 22 -95 22q-76 0 -135 -47.5t-69 -122.5h303l-35 -240h-303l-168 -1202h-268z" />
<glyph unicode="g" horiz-adv-x="1212" d="M111 -279l145 230q50 -31 118 -50.5t126 -19.5q109 0 188 73t94 183q-88 -74 -237 -74q-191 0 -295.5 119.5t-104.5 311.5q0 154 64.5 290t189 223t281.5 87q67 0 133.5 -29t87.5 -84l12 90h271l-113 -795q-13 -99 -41.5 -191.5t-77.5 -180t-113 -152t-155 -104 t-197 -39.5q-92 0 -209 29.5t-167 82.5zM444 543q0 -84 46 -145.5t128 -61.5q58 0 118.5 23t86.5 67q4 27 15.5 93.5t18.5 120.5t7 93q0 35 -31 60t-67 34t-70 9q-109 0 -180.5 -90.5t-71.5 -202.5z" />
<glyph unicode="h" horiz-adv-x="1077" d="M76 0l200 1434h279l-74 -512q36 71 120.5 121.5t164.5 50.5q142 0 211.5 -83t69.5 -227q0 -48 -9 -98l-96 -686h-274l80 565q4 40 4 62q0 145 -131 145q-82 0 -129.5 -60t-59.5 -147l-80 -565h-276z" />
<glyph unicode="i" horiz-adv-x="546" d="M76 0l151 1071h277l-152 -1071h-276zM244 1331q0 71 55 122.5t127 51.5q60 0 101.5 -37t41.5 -96q0 -71 -57 -123.5t-129 -52.5q-59 0 -99 38t-40 97z" />
<glyph unicode="j" horiz-adv-x="673" d="M-229 -334l131 211q46 -27 98 -27q34 0 62.5 14t48.5 34t36.5 53t26.5 61t18.5 68t12 64t8.5 59l123 868h282l-124 -895q-13 -89 -35.5 -166.5t-62.5 -153t-93 -129t-130.5 -86t-170.5 -32.5q-59 0 -124 15t-107 42zM360 1333q0 71 55.5 122.5t127.5 51.5q60 0 101.5 -37 t41.5 -96q0 -71 -57 -123.5t-129 -52.5q-59 0 -99.5 38t-40.5 97z" />
<glyph unicode="k" horiz-adv-x="1122" d="M109 0l200 1434h273l-97 -676l320 313h336l-463 -450l401 -621h-336l-301 453l-63 -453h-270z" />
<glyph unicode="l" horiz-adv-x="663" d="M109 287q0 77 12 151l139 996h285l-139 -990q-9 -74 -9 -102q0 -109 72 -109q51 0 98 31l68 -213q-114 -71 -266 -71q-141 0 -200.5 81t-59.5 226z" />
<glyph unicode="m" horiz-adv-x="1667" d="M76 0l149 1071h279l-21 -147q36 71 119.5 120.5t163.5 49.5q225 0 268 -195q45 96 130.5 145.5t195.5 49.5q140 0 209 -87.5t69 -230.5q0 -46 -6 -90l-96 -686h-276l79 565q4 40 4 62q0 145 -129 145q-82 0 -129.5 -59t-60.5 -146l-80 -567h-276l80 565q4 40 4 62 q0 145 -131 145q-82 0 -129.5 -60t-59.5 -147l-80 -565h-276z" />
<glyph unicode="n" horiz-adv-x="1077" d="M76 0l149 1071h279l-23 -149q36 71 120.5 121.5t164.5 50.5q144 0 212.5 -78.5t68.5 -222.5q0 -55 -9 -107l-96 -686h-274l80 565q4 40 4 62q0 145 -131 145q-82 0 -129.5 -60t-59.5 -147l-80 -565h-276z" />
<glyph unicode="o" horiz-adv-x="1204" d="M111 422q0 169 76 319t216.5 244t311.5 94q196 0 319 -129t123 -327q0 -127 -44.5 -246t-121.5 -210.5t-190.5 -146.5t-243.5 -55q-198 0 -322 128.5t-124 328.5zM414 444q0 -99 42.5 -168t135.5 -69q68 0 120.5 39t82 100.5t44.5 127t15 128.5q0 46 -9 85.5t-28 74 t-54 54.5t-83 20q-54 0 -99.5 -26t-75.5 -67.5t-51 -94t-30.5 -104.5t-9.5 -100z" />
<glyph unicode="p" horiz-adv-x="1216" d="M76 -371l203 1442h268l-12 -92q71 64 124 89.5t140 25.5q120 0 209.5 -68.5t132.5 -171t43 -219.5q0 -91 -22.5 -183.5t-67.5 -177t-107.5 -150.5t-149 -105t-184.5 -39q-47 0 -92 9.5t-88 35.5t-63 65l-66 -461h-268zM442 319q16 -40 60 -63t92 -23q88 0 157 56.5 t102.5 137.5t33.5 167q0 101 -56 167t-155 66q-46 0 -94 -26t-82 -64z" />
<glyph unicode="q" horiz-adv-x="1198" d="M111 422q0 76 15.5 154.5t45 153t75.5 140.5t103 115.5t131.5 78t157.5 28.5q85 0 138 -24.5t110 -86.5l12 90h270l-202 -1442h-271l66 461q-45 -55 -119 -82.5t-154 -27.5q-94 0 -167.5 35.5t-118.5 97t-68.5 140t-23.5 169.5zM420 483q0 -97 54 -161t149 -64 q48 0 98.5 24t75.5 62l55 385q-24 39 -66 64.5t-86 25.5q-86 0 -151.5 -50.5t-97 -126t-31.5 -159.5z" />
<glyph unicode="r" horiz-adv-x="860" d="M74 0l149 1071h279l-23 -149q36 71 120 120.5t165 49.5q50 0 84 -8.5t82 -30.5l-180 -295q-33 24 -99 24q-101 0 -155.5 -68.5t-69.5 -176.5l-76 -537h-276z" />
<glyph unicode="s" horiz-adv-x="1034" d="M76 86l143 242q47 -39 111.5 -65.5t120.5 -26.5q57 0 104 28.5t47 81.5q0 24 -20 43t-51.5 33t-70 28.5t-77 35t-70 47t-51.5 70t-20 99.5q0 121 62 211.5t161 135.5t217 45q89 0 186.5 -27.5t137.5 -85.5l-113 -195q-30 30 -84.5 46t-103.5 16q-55 0 -101.5 -23 t-46.5 -73q0 -27 20.5 -48t54 -37t73.5 -32t79.5 -37.5t73 -48.5t54 -70.5t20.5 -97.5q0 -91 -40.5 -168t-106.5 -127t-149.5 -78t-170.5 -28q-100 0 -210.5 27t-178.5 79z" />
<glyph unicode="t" horiz-adv-x="903" d="M109 831l34 240h160l37 270h270l-39 -270h303l-34 -240h-301l-54 -385q-12 -78 -12 -114q0 -46 17 -71t61 -25q40 0 94 36l62 -209q-66 -43 -123.5 -63t-128.5 -20q-127 0 -193.5 75t-66.5 205q0 46 6 90l67 481h-159z" />
<glyph unicode="u" horiz-adv-x="1075" d="M76 301q0 39 8 117l92 653h277l-82 -586q-4 -40 -4 -61q0 -145 129 -145q83 0 131 58.5t61 147.5l82 586h277l-152 -1071h-274l20 150q-35 -71 -120.5 -122t-166.5 -51q-145 0 -211.5 87.5t-66.5 236.5z" />
<glyph unicode="v" horiz-adv-x="1017" d="M117 1071h278l86 -665l275 665h288l-481 -1071h-276z" />
<glyph unicode="w" horiz-adv-x="1677" d="M117 1071h286l78 -665l275 663h297l88 -663l268 665h295l-481 -1071h-277l-94 680l-289 -680h-276z" />
<glyph unicode="x" horiz-adv-x="1107" d="M35 0l414 567l-211 504h270l129 -287l209 287h282l-360 -504l242 -567h-287l-150 322l-239 -322h-299z" />
<glyph unicode="y" horiz-adv-x="1067" d="M-31 -322l125 218q51 -31 105 -31q8 0 16 8q33 7 64 46.5t47.5 78.5t27.5 78l-196 995h297l94 -633l268 633h287q-90 -186 -253 -543t-187 -409q-32 -70 -60 -125t-77.5 -131t-97.5 -126.5t-114 -87t-133 -36.5q-51 0 -110 18.5t-103 46.5z" />
<glyph unicode="z" horiz-adv-x="1052" d="M76 0l33 242l555 594h-433l33 233h758l-33 -231l-551 -596h480l-35 -242h-807z" />
<glyph unicode="{" horiz-adv-x="735" d="M29 668l250 194l71 510q20 141 119.5 228.5t241.5 87.5h170l-37 -261q-45 0 -78 -6t-63 -21.5t-48.5 -46t-25.5 -75.5l-68 -485l-170 -125l135 -125l-69 -488q0 -4 -1 -13t-1 -13q0 -33 10 -56t25 -35.5t40.5 -19.5t47 -8.5t53.5 -1.5l-37 -262h-170q-124 0 -200.5 69 t-76.5 191q0 10 5 55l73 514z" />
<glyph unicode="|" horiz-adv-x="636" d="M35 -350l289 2060h290l-288 -2060h-291z" />
<glyph unicode="}" horiz-adv-x="757" d="M-111 -352l37 260q45 0 78 6t63 21.5t48.5 46t25.5 75.5l68 488l168 125l-133 125l69 485q0 4 1 13.5t1 13.5q0 33 -10.5 56t-25.5 36t-40.5 20t-47 9t-52.5 2l37 260h170q124 0 200.5 -69t76.5 -191q0 -11 -5 -56l-71 -510l194 -194l-249 -193l-72 -514 q-20 -141 -119.5 -228t-241.5 -87h-170z" />
<glyph unicode="~" horiz-adv-x="901" d="M76 553q54 84 127.5 139.5t161.5 55.5q47 0 113 -29t100 -29q35 0 67 17.5t51 46.5l174 -103q-53 -76 -126 -129t-152 -53q-49 0 -118 31.5t-105 31.5q-37 0 -73.5 -21.5t-59.5 -53.5z" />
<glyph unicode="&#xa1;" horiz-adv-x="608" d="M84 -188l244 1060h233l-55 -1060h-422zM319 1141q0 72 57.5 125t129.5 53q61 0 103 -38t42 -97q0 -72 -58 -126t-130 -54q-61 0 -102.5 38.5t-41.5 98.5z" />
<glyph unicode="&#xa2;" horiz-adv-x="1234" d="M111 498q0 186 73 347.5t213 271.5t324 138l22 160h172l-22 -155q80 -10 172 -46t141 -86l-151 -245q-41 43 -113.5 70.5t-134.5 27.5q-117 0 -208 -61.5t-138 -160t-47 -214.5q0 -138 76 -211.5t215 -81.5q58 -3 142.5 27.5t131.5 68.5l82 -246q-60 -49 -160.5 -84 t-187.5 -45l-25 -172h-172l25 176q-202 32 -316 173t-114 348z" />
<glyph unicode="&#xa3;" horiz-adv-x="1069" d="M100 6l31 223h29q42 0 81 39t65 95.5t43 109.5t22 92h-164l22 166h166q8 82 29.5 158t60 147t91 123t127 83.5t161.5 31.5q79 0 160.5 -29t120.5 -84l-103 -164q-34 28 -82.5 45t-91.5 17q-36 0 -66.5 -11.5t-52.5 -29.5t-40 -46t-29.5 -55t-21 -62t-14.5 -63t-9 -61h213 l-25 -166h-213q-9 -70 -57.5 -186t-95.5 -150h436l-31 -223h-762z" />
<glyph unicode="&#xa4;" horiz-adv-x="1286" d="M117 172l174 150q-19 55 -19 110q0 138 68 256l-129 152l215 190l127 -149q92 47 188 47q104 0 181 -51l172 153l161 -190l-182 -160q14 -46 14 -105q0 -146 -63 -241l139 -162l-217 -186l-123 145q-97 -51 -200 -51q-92 0 -181 47l-161 -141zM467 469q0 -79 52 -130.5 t132 -51.5q102 0 171 76t69 180q0 78 -50 129t-128 51q-101 0 -173.5 -76.5t-72.5 -177.5z" />
<glyph unicode="&#xa5;" horiz-adv-x="1204" d="M141 1253h293l219 -444l344 444h293l-483 -655h227l-22 -162h-267l-10 -71h266l-22 -162h-266l-29 -203h-291l29 203h-266l22 162h266l11 71h-267l25 162h225z" />
<glyph unicode="&#xa6;" horiz-adv-x="653" d="M49 -367l111 791h293l-113 -791h-291zM180 565l111 791h291l-111 -791h-291z" />
<glyph unicode="&#xa7;" horiz-adv-x="1361" d="M76 -246l151 260q40 -33 147 -73.5t156 -40.5q44 0 90.5 13t84.5 46.5t38 79.5q0 35 -26.5 61.5t-69 45t-94 36.5t-102.5 43t-93.5 57t-69 84.5t-26.5 120.5q0 115 59 213t160 152q-35 55 -35 127q0 104 43.5 187t116.5 133.5t163 77t189 26.5q108 0 209.5 -28t163.5 -93 l-123 -217q-32 34 -115 58t-137 24q-39 0 -83.5 -11t-82.5 -40.5t-38 -71.5q0 -32 21 -57.5t56 -41t79 -32t90.5 -31t90.5 -38t79 -51.5t56 -73.5t21 -103.5q0 -111 -57 -212t-150 -167q25 -55 25 -108q0 -103 -47.5 -194.5t-124 -154t-173.5 -99t-196 -36.5 q-114 0 -243.5 33.5t-202.5 95.5zM567 524q0 -35 27.5 -59.5t71.5 -34.5t79.5 -14t69.5 -4h27q37 19 61.5 50t24.5 70q0 35 -34 65t-76.5 44t-76.5 14q-62 0 -118 -36t-56 -95z" />
<glyph unicode="&#xa8;" horiz-adv-x="819" d="M109 1386q0 58 45 103t104 45q48 0 81.5 -32t33.5 -79q0 -60 -46 -104.5t-106 -44.5q-48 0 -80 31.5t-32 80.5zM504 1386q0 59 44.5 103.5t104.5 44.5q47 0 80 -32t33 -79q0 -60 -45.5 -104.5t-104.5 -44.5q-50 0 -81 31t-31 81z" />
<glyph unicode="&#xa9;" horiz-adv-x="1519" d="M109 512q0 150 64.5 292.5t171 247t249.5 167.5t293 63q164 0 298.5 -75t212 -208.5t77.5 -298.5q0 -150 -65 -292.5t-171 -247t-249.5 -167.5t-293.5 -63q-165 0 -299.5 75t-211 208.5t-76.5 298.5zM174 520q0 -226 152 -376t379 -150q136 0 265.5 57.5t225.5 152 t154.5 223t58.5 263.5q0 226 -152.5 376.5t-379.5 150.5q-135 0 -264 -57.5t-225.5 -151.5t-155 -223t-58.5 -265zM418 537q0 128 57 236t161.5 172.5t233.5 64.5q74 0 148 -31.5t110 -87.5l-90 -137q-23 32 -69 49.5t-90 17.5q-98 0 -174 -72.5t-76 -170.5q0 -78 51 -128.5 t129 -50.5q48 0 100.5 20t89.5 52l50 -141q-56 -56 -141 -91.5t-163 -35.5q-145 0 -236 94t-91 240z" />
<glyph unicode="&#xaa;" horiz-adv-x="774" d="M72 868q0 68 21 137t58.5 128t98 96t131.5 37q54 0 84 -17t70 -61l8 61h182q-4 -28 -21.5 -130.5t-25.5 -173t-8 -134.5q0 -44 11 -64.5t50 -21.5l-55 -137q-139 0 -182 94q-85 -94 -209 -94q-71 0 -121 44t-71 105.5t-21 130.5zM258 889q0 -58 27.5 -93.5t83.5 -35.5 q70 0 93 32t32 103q2 12 7 40.5t8 50.5t3 40q0 31 -31.5 52.5t-64.5 21.5q-75 0 -116.5 -66t-41.5 -145z" />
<glyph unicode="&#xab;" horiz-adv-x="1144" d="M76 492l286 428h291l-280 -428l159 -429h-290zM541 492l284 428h291l-278 -428l159 -429h-290z" />
<glyph unicode="&#xac;" horiz-adv-x="999" d="M76 731l37 260h858l-78 -549h-291l41 289h-567z" />
<glyph unicode="&#xad;" horiz-adv-x="983" d="M76 453l37 260h841l-36 -260h-842z" />
<glyph unicode="&#xae;" horiz-adv-x="1519" d="M109 512q0 150 64.5 292.5t171 247t249.5 167.5t293 63q164 0 298.5 -75t212 -208.5t77.5 -298.5q0 -150 -65 -292.5t-171 -247t-249.5 -167.5t-293.5 -63q-165 0 -299.5 75t-211 208.5t-76.5 298.5zM174 520q0 -226 152 -376t379 -150q136 0 265.5 57.5t225.5 152 t154.5 223t58.5 263.5q0 226 -152.5 376.5t-379.5 150.5q-135 0 -264 -57.5t-225.5 -151.5t-155 -223t-58.5 -265zM496 276l94 674h301q82 0 134 -49.5t52 -130.5q0 -68 -36.5 -128t-96.5 -89l119 -277h-195l-96 246h-76l-34 -246h-166zM717 664h114q33 0 56.5 24t23.5 57 q0 27 -16.5 44.5t-42.5 17.5h-117z" />
<glyph unicode="&#xaf;" horiz-adv-x="970" d="M76 1333l24 176h842l-24 -176h-842z" />
<glyph unicode="&#xb0;" horiz-adv-x="708" d="M109 997q0 124 92.5 213.5t216.5 89.5q98 0 164.5 -63.5t66.5 -161.5q0 -123 -92 -214t-215 -91q-101 0 -167 63.5t-66 163.5zM254 1020q0 -46 30.5 -77.5t75.5 -31.5q58 0 103 44t45 102q0 45 -33.5 75.5t-79.5 30.5q-57 0 -99 -43t-42 -100z" />
<glyph unicode="&#xb1;" horiz-adv-x="1079" d="M76 31l37 260h841l-36 -260h-842zM172 684l35 260h276l41 291h291l-41 -291h275l-35 -260h-277l-41 -291h-290l40 291h-274z" />
<glyph unicode="&#xb2;" horiz-adv-x="563" d="M31 600q10 74 14 90q10 46 47.5 89.5t83.5 76t90.5 62.5t74.5 62.5t30 63.5q0 33 -23.5 48.5t-58.5 15.5q-31 0 -68 -15t-65 -36l-41 121q44 41 110.5 66.5t128.5 25.5q80 0 140.5 -44t60.5 -122q0 -43 -16 -82.5t-48.5 -77t-59 -62.5t-72.5 -62.5t-64 -53.5h233 l-22 -166h-475z" />
<glyph unicode="&#xb3;" horiz-adv-x="559" d="M31 664l73 131q76 -41 132 -41q38 0 74 16t36 49q0 17 -14.5 28t-43 15t-47.5 5t-53 0l-34 -1l18 129l125 103h-174l22 155h406l-21 -145l-110 -96q53 -18 82.5 -64.5t29.5 -103.5q0 -114 -89 -184t-205 -70q-54 0 -113 20t-94 54z" />
<glyph unicode="&#xb4;" horiz-adv-x="673" d="M319 1266l134 258h276l-184 -258h-226z" />
<glyph unicode="&#xb6;" horiz-adv-x="1097" d="M109 975q0 124 95.5 217.5t219.5 93.5h655l-24 -172h-144l-180 -1278h-180l178 1278h-149l-179 -1278h-180l127 903q-102 0 -170.5 67t-68.5 169z" />
<glyph unicode="&#xb8;" horiz-adv-x="1595" d="M492 -248l235 352h176l-160 -372z" />
<glyph unicode="&#xb9;" horiz-adv-x="366" d="M51 1186q138 67 244 67h80l-92 -651h-183l66 467l-105 -37z" />
<glyph unicode="&#xba;" horiz-adv-x="804" d="M111 864q0 104 47 196.5t133.5 151t191.5 58.5q123 0 200 -80t77 -203q0 -106 -47 -198.5t-133.5 -150.5t-192.5 -58q-123 0 -199.5 80t-76.5 204zM311 881q0 -54 24 -91.5t75 -37.5t86 36.5t48 83t13 95.5q0 129 -98 129q-48 0 -83 -37t-50 -84.5t-15 -93.5z" />
<glyph unicode="&#xbb;" horiz-adv-x="1144" d="M76 66l280 428l-159 428h290l166 -428l-286 -428h-291zM541 66l278 428l-160 428h291l166 -428l-285 -428h-290z" />
<glyph unicode="&#xbf;" horiz-adv-x="929" d="M109 106q0 36 6 66q46 265 309 373q76 28 108 28l39 279h244l-63 -459h-107q-82 0 -154.5 -60.5t-72.5 -142.5q0 -62 51.5 -98.5t116.5 -36.5q41 0 105 21t102 45l49 -215q-61 -44 -177 -71.5t-202 -27.5q-97 0 -175.5 31t-128.5 100.5t-50 167.5zM571 1124 q0 72 58 125.5t131 53.5q60 0 101.5 -38t41.5 -98q0 -72 -57.5 -125t-130.5 -53q-60 0 -102 38t-42 97z" />
<glyph unicode="&#xc0;" horiz-adv-x="1226" d="M12 0l547 1253h412l196 -1253h-293l-51 279h-389l-129 -279h-293zM539 541h254l-66 440zM588 1700h276l62 -258h-226z" />
<glyph unicode="&#xc1;" horiz-adv-x="1226" d="M12 0l547 1253h412l196 -1253h-293l-51 279h-389l-129 -279h-293zM539 541h254l-66 440zM618 1440l136 258h274l-184 -258h-226z" />
<glyph unicode="&#xc2;" horiz-adv-x="1226" d="M12 0l547 1253h412l196 -1253h-293l-51 279h-389l-129 -279h-293zM539 541h254l-66 440zM541 1427l159 275h256l82 -275h-176l-53 138l-88 -138h-180z" />
<glyph unicode="&#xc3;" horiz-adv-x="1296" d="M12 0l547 1253h412l196 -1253h-293l-51 279h-389l-129 -279h-293zM430 1546q38 74 119 122t166 48q41 0 116 -27.5t117 -27.5t69 12.5t48 46.5l174 -96q-37 -73 -101 -124.5t-137 -51.5q-55 0 -139 31.5t-125 31.5q-92 0 -151 -77zM539 541h254l-66 440z" />
<glyph unicode="&#xc4;" horiz-adv-x="1230" d="M12 0l547 1253h412l196 -1253h-293l-51 279h-389l-129 -279h-293zM477 1528q0 60 45 104.5t105 44.5q48 0 80 -31.5t32 -80.5q0 -60 -45 -104t-104 -44q-47 0 -80 32t-33 79zM539 541h254l-66 440zM870 1528q0 60 45.5 104.5t104.5 44.5q50 0 82.5 -31.5t32.5 -80.5 q0 -60 -46 -105t-106 -45q-47 0 -80 33t-33 80z" />
<glyph unicode="&#xc5;" horiz-adv-x="1224" d="M12 0l547 1253h412l196 -1253h-293l-51 279h-389l-129 -279h-293zM539 541h254l-66 440zM623 1501q0 83 61 143t145 60q66 0 111 -43t45 -109q0 -82 -62 -143t-145 -61q-67 0 -111 43t-44 110zM725 1518q0 -28 19 -48t47 -20q36 0 64 26.5t28 61.5q0 29 -21 48.5 t-49 19.5q-34 0 -61 -27t-27 -61z" />
<glyph unicode="&#xc6;" horiz-adv-x="1693" d="M12 0l580 1253h1075l-39 -278h-610l-29 -205h481l-34 -248h-482l-34 -243h610l-39 -279h-901l39 279h-195l-129 -279h-293zM539 541h127l61 440z" />
<glyph unicode="&#xc7;" horiz-adv-x="1210" d="M94 512q0 203 89 377t253.5 280.5t368.5 106.5q98 0 211 -36t172 -99l-150 -244q-42 42 -113.5 69t-133.5 27q-117 0 -208.5 -61t-138.5 -159t-47 -214q0 -136 77.5 -215.5t213.5 -79.5q66 0 144.5 27.5t130.5 70.5l81 -247q-66 -52 -178.5 -88t-203.5 -41l-109 -252 l-250 20l166 250q-181 45 -278 181t-97 327z" />
<glyph unicode="&#xc8;" horiz-adv-x="1183" d="M84 0l176 1253h901l-39 -278h-610l-29 -209h482l-35 -248h-481l-35 -239h610l-39 -279h-901zM586 1700h276l62 -258h-226z" />
<glyph unicode="&#xc9;" horiz-adv-x="1183" d="M84 0l176 1253h901l-39 -278h-610l-29 -209h482l-35 -248h-481l-35 -239h610l-39 -279h-901zM573 1440l136 258h274l-184 -258h-226z" />
<glyph unicode="&#xca;" horiz-adv-x="1183" d="M84 0l176 1253h901l-39 -278h-610l-29 -209h482l-35 -248h-481l-35 -239h610l-39 -279h-901zM500 1430l159 274h256l82 -274h-176l-53 135l-88 -135h-180z" />
<glyph unicode="&#xcb;" horiz-adv-x="1183" d="M84 0l176 1253h901l-39 -278h-610l-29 -209h482l-35 -248h-481l-35 -239h610l-39 -279h-901zM434 1528q0 59 45 103t105 44q47 0 79.5 -31.5t32.5 -78.5q0 -60 -45 -105t-104 -45q-49 0 -81 32.5t-32 80.5zM827 1528q0 58 45.5 102.5t104.5 44.5q48 0 81.5 -31.5 t33.5 -78.5q0 -60 -46 -105t-106 -45q-48 0 -80.5 32t-32.5 81z" />
<glyph unicode="&#xcc;" horiz-adv-x="628" d="M84 0l176 1253h291l-176 -1253h-291zM215 1700h274l62 -258h-223z" />
<glyph unicode="&#xcd;" horiz-adv-x="598" d="M84 0l176 1253h291l-176 -1253h-291zM307 1440l135 258h275l-185 -258h-225z" />
<glyph unicode="&#xce;" horiz-adv-x="593" d="M84 0l176 1253h291l-176 -1253h-291zM182 1430l160 274h256l82 -274h-176l-53 135l-89 -135h-180z" />
<glyph unicode="&#xcf;" horiz-adv-x="602" d="M82 0l176 1253h291l-176 -1253h-291zM117 1528q0 59 44.5 103t104.5 44q48 0 80.5 -31.5t32.5 -78.5q0 -60 -45.5 -105t-104.5 -45q-49 0 -80.5 32.5t-31.5 80.5zM510 1528q0 59 44.5 103t104.5 44q48 0 81.5 -31.5t33.5 -78.5q0 -60 -45.5 -105t-105.5 -45 q-48 0 -80.5 32t-32.5 81z" />
<glyph unicode="&#xd0;" horiz-adv-x="1409" d="M84 530l29 213h155l72 510h496q248 0 396 -128t148 -371q0 -149 -55.5 -287t-150 -241t-229.5 -164.5t-286 -61.5h-495l76 530h-156zM496 279h202q84 0 154 37.5t114.5 99.5t69.5 138.5t25 156.5q0 126 -68.5 195t-195.5 69h-205l-33 -232h203l-31 -213h-201z" />
<glyph unicode="&#xd1;" horiz-adv-x="1296" d="M84 0l176 1253h293l328 -729l102 729h293l-176 -1253h-293l-332 711l-100 -711h-291zM408 1546q40 75 119.5 122.5t164.5 47.5q42 0 117.5 -27.5t116.5 -27.5t68 13t48 46l177 -96q-37 -73 -101.5 -124.5t-138.5 -51.5q-55 0 -138 31.5t-124 31.5q-96 0 -152 -77z" />
<glyph unicode="&#xd2;" d="M94 500q0 120 31 234.5t91.5 211.5t143.5 170.5t193.5 115.5t234.5 42q230 0 369 -145t139 -377q0 -152 -48.5 -291t-135.5 -246t-218.5 -171t-287.5 -64q-234 0 -373 143t-139 377zM414 520q0 -59 12 -108.5t37.5 -90.5t71 -64.5t106.5 -23.5q89 0 157 47.5t105.5 123.5 t55.5 158t18 165q0 58 -11.5 107.5t-36.5 91.5t-70.5 66t-106.5 24q-71 0 -130 -32.5t-96.5 -83.5t-63.5 -118t-37 -132.5t-11 -129.5zM649 1700h277l61 -258h-225z" />
<glyph unicode="&#xd3;" d="M94 500q0 120 31 234.5t91.5 211.5t143.5 170.5t193.5 115.5t234.5 42q230 0 369 -145t139 -377q0 -152 -48.5 -291t-135.5 -246t-218.5 -171t-287.5 -64q-234 0 -373 143t-139 377zM414 520q0 -59 12 -108.5t37.5 -90.5t71 -64.5t106.5 -23.5q89 0 157 47.5t105.5 123.5 t55.5 158t18 165q0 58 -11.5 107.5t-36.5 91.5t-70.5 66t-106.5 24q-71 0 -130 -32.5t-96.5 -83.5t-63.5 -118t-37 -132.5t-11 -129.5zM633 1440l133 258h274l-184 -258h-223z" />
<glyph unicode="&#xd4;" d="M94 500q0 120 31 234.5t91.5 211.5t143.5 170.5t193.5 115.5t234.5 42q230 0 369 -145t139 -377q0 -152 -48.5 -291t-135.5 -246t-218.5 -171t-287.5 -64q-234 0 -373 143t-139 377zM414 520q0 -59 12 -108.5t37.5 -90.5t71 -64.5t106.5 -23.5q89 0 157 47.5t105.5 123.5 t55.5 158t18 165q0 58 -11.5 107.5t-36.5 91.5t-70.5 66t-106.5 24q-71 0 -130 -32.5t-96.5 -83.5t-63.5 -118t-37 -132.5t-11 -129.5zM559 1430l160 274h256l82 -274h-176l-54 135l-90 -135h-178z" />
<glyph unicode="&#xd5;" d="M94 500q0 120 31 234.5t91.5 211.5t143.5 170.5t193.5 115.5t234.5 42q230 0 369 -145t139 -377q0 -152 -48.5 -291t-135.5 -246t-218.5 -171t-287.5 -64q-234 0 -373 143t-139 377zM414 520q0 -59 12 -108.5t37.5 -90.5t71 -64.5t106.5 -23.5q89 0 157 47.5t105.5 123.5 t55.5 158t18 165q0 58 -11.5 107.5t-36.5 91.5t-70.5 66t-106.5 24q-71 0 -130 -32.5t-96.5 -83.5t-63.5 -118t-37 -132.5t-11 -129.5zM446 1546q40 75 120 122.5t165 47.5q42 0 117.5 -27.5t116.5 -27.5q42 0 68.5 12.5t47.5 46.5l176 -96q-37 -73 -101 -124.5t-138 -51.5 q-54 0 -137.5 31.5t-124.5 31.5q-96 0 -152 -77z" />
<glyph unicode="&#xd6;" d="M94 500q0 120 31 234.5t91.5 211.5t143.5 170.5t193.5 115.5t234.5 42q230 0 369 -145t139 -377q0 -152 -48.5 -291t-135.5 -246t-218.5 -171t-287.5 -64q-234 0 -373 143t-139 377zM414 520q0 -59 12 -108.5t37.5 -90.5t71 -64.5t106.5 -23.5q89 0 157 47.5t105.5 123.5 t55.5 158t18 165q0 58 -11.5 107.5t-36.5 91.5t-70.5 66t-106.5 24q-71 0 -130 -32.5t-96.5 -83.5t-63.5 -118t-37 -132.5t-11 -129.5zM496 1532q0 59 44.5 104t104.5 45q48 0 81.5 -31.5t33.5 -80.5q0 -60 -46 -105t-106 -45q-47 0 -79.5 33t-32.5 80zM889 1532 q0 60 45 104.5t104 44.5q50 0 82.5 -31.5t32.5 -80.5q0 -60 -45 -105t-104 -45q-50 0 -82.5 32t-32.5 81z" />
<glyph unicode="&#xd7;" horiz-adv-x="864" d="M43 436l236 205l-183 213l209 180l180 -209l236 205l164 -188l-236 -207l168 -195l-209 -182l-166 195l-237 -207z" />
<glyph unicode="&#xd8;" d="M94 504q0 150 49.5 289.5t137.5 247t220.5 172.5t286.5 65q65 0 142 -23l82 160h170l-111 -213q115 -71 170 -186.5t55 -259.5q0 -152 -48.5 -291t-135.5 -246t-218.5 -171t-287.5 -64q-70 0 -147 22l-74 -141h-168l100 194q-114 69 -168.5 185.5t-54.5 259.5zM416 530 q0 -120 41 -188l350 666q-20 10 -55 10q-87 0 -154.5 -47t-105.5 -122.5t-57 -157t-19 -161.5zM582 250q22 -12 59 -12q72 0 130.5 31.5t95.5 82t62 116.5t35.5 131t10.5 130q0 121 -43 189z" />
<glyph unicode="&#xd9;" horiz-adv-x="1230" d="M109 391q0 33 8 103l106 759h285l-107 -759q-4 -32 -4 -48q0 -86 48 -138t133 -52q98 0 161.5 68.5t77.5 169.5l107 759h284l-106 -759q-33 -232 -183 -373t-380 -141q-203 0 -316.5 105.5t-113.5 305.5zM555 1700h274l62 -258h-225z" />
<glyph unicode="&#xda;" horiz-adv-x="1230" d="M109 391q0 33 8 103l106 759h285l-107 -759q-4 -32 -4 -48q0 -86 48 -138t133 -52q98 0 161.5 68.5t77.5 169.5l107 759h284l-106 -759q-33 -232 -183 -373t-380 -141q-203 0 -316.5 105.5t-113.5 305.5zM567 1440l133 258h277l-184 -258h-226z" />
<glyph unicode="&#xdb;" horiz-adv-x="1230" d="M109 391q0 33 8 103l106 759h285l-107 -759q-4 -32 -4 -48q0 -86 48 -138t133 -52q98 0 161.5 68.5t77.5 169.5l107 759h284l-106 -759q-33 -232 -183 -373t-380 -141q-203 0 -316.5 105.5t-113.5 305.5zM492 1430l159 274h256l82 -274h-176l-53 135l-90 -135h-178z" />
<glyph unicode="&#xdc;" horiz-adv-x="1230" d="M109 391q0 33 8 103l106 759h285l-107 -759q-4 -32 -4 -48q0 -86 48 -138t133 -52q98 0 161.5 68.5t77.5 169.5l107 759h284l-106 -759q-33 -232 -183 -373t-380 -141q-203 0 -316.5 105.5t-113.5 305.5zM428 1528q0 59 45 103t105 44q48 0 81 -31.5t33 -78.5 q0 -60 -45.5 -105t-105.5 -45q-48 0 -80.5 32t-32.5 81zM821 1526q0 60 45.5 104.5t104.5 44.5q49 0 81.5 -31.5t32.5 -78.5q0 -60 -45 -105t-104 -45q-49 0 -82 32t-33 79z" />
<glyph unicode="&#xdd;" horiz-adv-x="1189" d="M125 1253h295l215 -462l346 462h295l-533 -723l-73 -530h-293l76 530zM614 1440l134 258h276l-184 -258h-226z" />
<glyph unicode="&#xde;" horiz-adv-x="1187" d="M84 0l190 1360h277l-35 -244h258q162 0 263.5 -99t101.5 -261q0 -126 -61 -238t-168.5 -182t-233.5 -74h-279l-39 -262h-274zM436 541h144h43.5t42.5 1.5t43 4.5t38.5 8.5t37 14t29 21t24.5 29.5t14 40t6 51q0 23 -4.5 42t-16 32t-21.5 22.5t-30 15t-32 9t-37 5t-36 1.5 h-37h-5h-5h-5h-152z" />
<glyph unicode="&#xdf;" horiz-adv-x="1167" d="M84 0l115 813q29 214 164.5 336.5t349.5 122.5q64 0 126.5 -12.5t123 -39t98 -78t37.5 -120.5q0 -55 -27 -112.5t-59 -97t-59 -85.5t-27 -82q0 -27 20 -54t49 -51.5t58 -52.5t49 -68t20 -87q0 -75 -39.5 -142t-101 -112t-136 -71.5t-145.5 -26.5q-61 0 -128.5 18.5 t-112.5 52.5l108 199q72 -41 127 -41q56 0 100 43t44 98q0 35 -24 64.5t-58.5 51.5l-69 44t-58.5 54t-24 71q0 40 21.5 75t52 60.5t61.5 51t52.5 59.5t21.5 73q0 49 -38.5 71t-92.5 22q-90 0 -143 -65.5t-66 -162.5l-115 -819h-274z" />
<glyph unicode="&#xe0;" horiz-adv-x="1275" d="M111 438q0 72 15 148.5t43.5 150t72.5 139t98.5 115t126.5 78.5t151 29q80 0 158 -34t105 -99l14 104h324l-68 -483q-23 -157 -23 -250q0 -27 1.5 -46t7.5 -39.5t16.5 -33t29.5 -20.5t46 -7l-115 -210q-225 0 -301 161q-73 -85 -153 -123t-191 -38q-87 0 -157.5 41.5 t-113 109t-65 146.5t-22.5 161zM424 477q0 -96 46 -155.5t138 -59.5q58 0 119.5 33t71.5 86q28 142 45 311v10q0 53 -51 88t-107 35q-64 0 -115.5 -32.5t-82.5 -84.5t-47.5 -112t-16.5 -119zM612 1526h277l61 -258h-225z" />
<glyph unicode="&#xe1;" horiz-adv-x="1275" d="M111 438q0 72 15 148.5t43.5 150t72.5 139t98.5 115t126.5 78.5t151 29q80 0 158 -34t105 -99l14 104h324l-68 -483q-23 -157 -23 -250q0 -27 1.5 -46t7.5 -39.5t16.5 -33t29.5 -20.5t46 -7l-115 -210q-225 0 -301 161q-73 -85 -153 -123t-191 -38q-87 0 -157.5 41.5 t-113 109t-65 146.5t-22.5 161zM424 477q0 -96 46 -155.5t138 -59.5q58 0 119.5 33t71.5 86q28 142 45 311v10q0 53 -51 88t-107 35q-64 0 -115.5 -32.5t-82.5 -84.5t-47.5 -112t-16.5 -119zM653 1253l135 258h275l-184 -258h-226z" />
<glyph unicode="&#xe2;" horiz-adv-x="1275" d="M111 438q0 72 15 148.5t43.5 150t72.5 139t98.5 115t126.5 78.5t151 29q80 0 158 -34t105 -99l14 104h324l-68 -483q-23 -157 -23 -250q0 -27 1.5 -46t7.5 -39.5t16.5 -33t29.5 -20.5t46 -7l-115 -210q-225 0 -301 161q-73 -85 -153 -123t-191 -38q-87 0 -157.5 41.5 t-113 109t-65 146.5t-22.5 161zM424 477q0 -96 46 -155.5t138 -59.5q58 0 119.5 33t71.5 86q28 142 45 311v10q0 53 -51 88t-107 35q-64 0 -115.5 -32.5t-82.5 -84.5t-47.5 -112t-16.5 -119zM557 1253l160 275h256l82 -275h-176l-54 138l-88 -138h-180z" />
<glyph unicode="&#xe3;" horiz-adv-x="1335" d="M111 438q0 72 15 148.5t43.5 150t72.5 139t98.5 115t126.5 78.5t151 29q80 0 158 -34t105 -99l14 104h324l-68 -483q-23 -157 -23 -250q0 -27 1.5 -46t7.5 -39.5t16.5 -33t29.5 -20.5t46 -7l-115 -210q-225 0 -301 161q-73 -85 -153 -123t-191 -38q-87 0 -157.5 41.5 t-113 109t-65 146.5t-22.5 161zM424 477q0 -96 46 -155.5t138 -59.5q58 0 119.5 33t71.5 86q28 142 45 311v10q0 53 -51 88t-107 35q-64 0 -115.5 -32.5t-82.5 -84.5t-47.5 -112t-16.5 -119zM479 1382q38 73 119 121.5t166 48.5q41 0 116.5 -27.5t116.5 -27.5q42 0 69 12.5 t48 44.5l174 -94q-37 -74 -100.5 -126t-136.5 -52q-55 0 -139 32t-126 32q-93 0 -151 -76z" />
<glyph unicode="&#xe4;" horiz-adv-x="1275" d="M111 438q0 72 15 148.5t43.5 150t72.5 139t98.5 115t126.5 78.5t151 29q80 0 158 -34t105 -99l14 104h324l-68 -483q-23 -157 -23 -250q0 -27 1.5 -46t7.5 -39.5t16.5 -33t29.5 -20.5t46 -7l-115 -210q-225 0 -301 161q-73 -85 -153 -123t-191 -38q-87 0 -157.5 41.5 t-113 109t-65 146.5t-22.5 161zM424 477q0 -96 46 -155.5t138 -59.5q58 0 119.5 33t71.5 86q28 142 45 311v10q0 53 -51 88t-107 35q-64 0 -115.5 -32.5t-82.5 -84.5t-47.5 -112t-16.5 -119zM502 1368q0 58 45 103t104 45q48 0 81.5 -32t33.5 -79q0 -60 -46 -105t-106 -45 q-48 0 -80 32t-32 81zM897 1366q0 60 45 105t105 45q47 0 79.5 -32t32.5 -79q0 -60 -44.5 -105t-104.5 -45q-49 0 -81 31.5t-32 79.5z" />
<glyph unicode="&#xe5;" horiz-adv-x="1275" d="M111 438q0 72 15 148.5t43.5 150t72.5 139t98.5 115t126.5 78.5t151 29q80 0 158 -34t105 -99l14 104h324l-68 -483q-23 -157 -23 -250q0 -27 1.5 -46t7.5 -39.5t16.5 -33t29.5 -20.5t46 -7l-115 -210q-225 0 -301 161q-73 -85 -153 -123t-191 -38q-87 0 -157.5 41.5 t-113 109t-65 146.5t-22.5 161zM424 477q0 -96 46 -155.5t138 -59.5q58 0 119.5 33t71.5 86q28 142 45 311v10q0 53 -51 88t-107 35q-64 0 -115.5 -32.5t-82.5 -84.5t-47.5 -112t-16.5 -119zM627 1337q0 83 62.5 143t144.5 60q66 0 110.5 -42.5t44.5 -108.5 q0 -82 -61.5 -143.5t-143.5 -61.5q-68 0 -112.5 43t-44.5 110zM729 1354q0 -29 19.5 -48.5t48.5 -19.5q34 0 62 26.5t28 61.5q0 28 -20.5 48t-49.5 20q-34 0 -61 -27t-27 -61z" />
<glyph unicode="&#xe6;" horiz-adv-x="1699" d="M111 274q0 173 125.5 297.5t298.5 124.5q54 0 118 -16t103 -43l2 25q0 91 -46 134.5t-139 43.5q-118 0 -264 -103l-61 197q82 73 189.5 114.5t215.5 41.5q198 0 295 -156q74 73 170 115.5t195 42.5q156 0 248 -87.5t92 -242.5q0 -78 -40 -142.5t-104 -103t-137.5 -59.5 t-146.5 -21q-113 0 -199 45v-16q0 -95 48.5 -167.5t139.5 -72.5q83 0 166.5 35t139.5 94l67 -209q-69 -78 -185 -121.5t-228 -43.5q-211 0 -332 135q-71 -62 -189 -101t-219 -39q-146 0 -234.5 77.5t-88.5 221.5zM383 317q0 -56 40 -87t97 -31q55 0 109 21t92 59 q0 70 10 155q-25 31 -72.5 45.5t-95.5 14.5q-68 0 -124 -55t-56 -122zM1067 672q54 -25 137 -25q34 0 65.5 5t63.5 17.5t51 38.5t19 62q0 46 -36.5 70t-84.5 24q-141 0 -215 -192z" />
<glyph unicode="&#xe7;" horiz-adv-x="1110" d="M111 436q0 175 78 323.5t220.5 238t319.5 89.5q100 0 200.5 -41t151.5 -118l-123 -193q-32 44 -94 68t-123 24q-87 0 -165.5 -44.5t-126.5 -121.5t-48 -165q0 -107 68.5 -176.5t175.5 -69.5q65 0 137 26.5t121 69.5l68 -194q-59 -59 -147.5 -102.5t-178.5 -63.5 l-113 -260l-251 20l161 244q-158 39 -244.5 159.5t-86.5 286.5z" />
<glyph unicode="&#xe8;" horiz-adv-x="1081" d="M111 426q0 124 43.5 244t119 213.5t187.5 151t239 57.5q147 0 240.5 -87t93.5 -231q0 -80 -37.5 -146t-98.5 -107t-134.5 -63t-149.5 -22q-123 0 -208 45q0 -67 18 -122.5t63.5 -94.5t114.5 -39q78 0 160.5 36t138.5 93l68 -209q-68 -78 -185.5 -121.5t-228.5 -43.5 q-202 0 -323 122t-121 324zM449 672q51 -25 137 -25q33 0 64.5 5t63 17.5t51 38.5t19.5 62q0 46 -36.5 70t-83.5 24q-78 0 -131 -55t-84 -137zM475 1526h275l61 -258h-225z" />
<glyph unicode="&#xe9;" horiz-adv-x="1081" d="M111 426q0 124 43.5 244t119 213.5t187.5 151t239 57.5q147 0 240.5 -87t93.5 -231q0 -80 -37.5 -146t-98.5 -107t-134.5 -63t-149.5 -22q-123 0 -208 45q0 -67 18 -122.5t63.5 -94.5t114.5 -39q78 0 160.5 36t138.5 93l68 -209q-68 -78 -185.5 -121.5t-228.5 -43.5 q-202 0 -323 122t-121 324zM449 672q51 -25 137 -25q33 0 64.5 5t63 17.5t51 38.5t19.5 62q0 46 -36.5 70t-83.5 24q-78 0 -131 -55t-84 -137zM621 1264l131 258h278l-184 -258h-225z" />
<glyph unicode="&#xea;" horiz-adv-x="1081" d="M111 426q0 124 43.5 244t119 213.5t187.5 151t239 57.5q147 0 240.5 -87t93.5 -231q0 -80 -37.5 -146t-98.5 -107t-134.5 -63t-149.5 -22q-123 0 -208 45q0 -67 18 -122.5t63.5 -94.5t114.5 -39q78 0 160.5 36t138.5 93l68 -209q-68 -78 -185.5 -121.5t-228.5 -43.5 q-202 0 -323 122t-121 324zM428 1253l160 275h256l82 -275h-176l-54 138l-90 -138h-178zM449 672q51 -25 137 -25q33 0 64.5 5t63 17.5t51 38.5t19.5 62q0 46 -36.5 70t-83.5 24q-78 0 -131 -55t-84 -137z" />
<glyph unicode="&#xeb;" horiz-adv-x="1093" d="M111 426q0 124 43.5 244t119 213.5t187.5 151t239 57.5q147 0 240.5 -87t93.5 -231q0 -80 -37.5 -146t-98.5 -107t-134.5 -63t-149.5 -22q-123 0 -208 45q0 -67 18 -122.5t63.5 -94.5t114.5 -39q78 0 160.5 36t138.5 93l68 -209q-68 -78 -185.5 -121.5t-228.5 -43.5 q-202 0 -323 122t-121 324zM340 1366q0 60 45 105t104 45q48 0 81.5 -32t33.5 -81q0 -60 -45.5 -104t-105.5 -44q-47 0 -80 32t-33 79zM449 672q51 -25 137 -25q33 0 64.5 5t63 17.5t51 38.5t19.5 62q0 46 -36.5 70t-83.5 24q-78 0 -131 -55t-84 -137zM735 1366q0 60 45 105 t105 45q48 0 81 -32t33 -81q0 -60 -45.5 -105t-105.5 -45q-47 0 -80 33t-33 80z" />
<glyph unicode="&#xec;" horiz-adv-x="487" d="M76 0l151 1071h277l-152 -1071h-276zM172 1526h274l62 -258h-225z" />
<glyph unicode="&#xed;" horiz-adv-x="538" d="M76 0l151 1071h277l-152 -1071h-276zM289 1266l135 258h274l-184 -258h-225z" />
<glyph unicode="&#xee;" horiz-adv-x="538" d="M76 0l151 1071h277l-152 -1071h-276zM141 1253l160 275h256l82 -275h-158l-69 148l-111 -148h-160z" />
<glyph unicode="&#xef;" horiz-adv-x="598" d="M78 0l149 1071h277l-152 -1071h-274zM82 1366q0 60 44.5 105t104.5 45q48 0 80.5 -32t32.5 -81q0 -60 -45 -105t-104 -45q-49 0 -81 32.5t-32 80.5zM475 1366q0 60 45 105t105 45q48 0 81 -32t33 -81q0 -60 -45.5 -104t-105.5 -44q-47 0 -80 32t-33 79z" />
<glyph unicode="&#xf0;" horiz-adv-x="997" d="M111 352q0 96 29 186t82.5 161.5t136.5 115t182 43.5q17 0 34 -10l-73 172l-154 -92l-61 119l164 102l-107 266h289q22 -58 55 -121l141 86l64 -118l-145 -88q46 -92 60.5 -122.5t54 -120t56 -141.5t32.5 -126t16 -134q0 -143 -60.5 -267.5t-176 -203.5t-259.5 -79 q-158 0 -259 106t-101 266zM360 367q0 -75 34.5 -130t105.5 -55q53 0 94 31t63.5 79.5t33.5 99.5t11 100q0 167 -135 167q-69 0 -118 -48.5t-69 -112.5t-20 -131z" />
<glyph unicode="&#xf1;" horiz-adv-x="1103" d="M76 0l149 1071h279l-23 -149q36 71 120.5 121.5t164.5 50.5q144 0 212.5 -78.5t68.5 -222.5q0 -55 -9 -107l-96 -686h-274l80 565q4 40 4 62q0 145 -131 145q-82 0 -129.5 -60t-59.5 -147l-80 -565h-276zM307 1382q38 73 119 121.5t166 48.5q41 0 116 -27.5t117 -27.5 q80 0 117 57l174 -94q-37 -74 -100.5 -126t-136.5 -52q-55 0 -140 32t-125 32q-96 0 -151 -76z" />
<glyph unicode="&#xf2;" horiz-adv-x="1204" d="M111 422q0 169 76 319t216.5 244t311.5 94q196 0 319 -129t123 -327q0 -127 -44.5 -246t-121.5 -210.5t-190.5 -146.5t-243.5 -55q-198 0 -322 128.5t-124 328.5zM414 444q0 -99 42.5 -168t135.5 -69q68 0 120.5 39t82 100.5t44.5 127t15 128.5q0 46 -9 85.5t-28 74 t-54 54.5t-83 20q-54 0 -99.5 -26t-75.5 -67.5t-51 -94t-30.5 -104.5t-9.5 -100zM555 1526h276l62 -258h-225z" />
<glyph unicode="&#xf3;" horiz-adv-x="1204" d="M111 422q0 169 76 319t216.5 244t311.5 94q196 0 319 -129t123 -327q0 -127 -44.5 -246t-121.5 -210.5t-190.5 -146.5t-243.5 -55q-198 0 -322 128.5t-124 328.5zM414 444q0 -99 42.5 -168t135.5 -69q68 0 120.5 39t82 100.5t44.5 127t15 128.5q0 46 -9 85.5t-28 74 t-54 54.5t-83 20q-54 0 -99.5 -26t-75.5 -67.5t-51 -94t-30.5 -104.5t-9.5 -100zM618 1266l134 258h276l-184 -258h-226z" />
<glyph unicode="&#xf4;" horiz-adv-x="1204" d="M111 422q0 169 76 319t216.5 244t311.5 94q196 0 319 -129t123 -327q0 -127 -44.5 -246t-121.5 -210.5t-190.5 -146.5t-243.5 -55q-198 0 -322 128.5t-124 328.5zM414 444q0 -99 42.5 -168t135.5 -69q68 0 120.5 39t82 100.5t44.5 127t15 128.5q0 46 -9 85.5t-28 74 t-54 54.5t-83 20q-54 0 -99.5 -26t-75.5 -67.5t-51 -94t-30.5 -104.5t-9.5 -100zM489 1253l160 275h256l82 -275h-176l-53 138l-88 -138h-181z" />
<glyph unicode="&#xf5;" horiz-adv-x="1247" d="M123 422q0 169 75.5 319t215.5 244t311 94q196 0 319 -129t123 -327q0 -171 -74.5 -320.5t-213.5 -243.5t-310 -94q-199 0 -322.5 128.5t-123.5 328.5zM391 1372q38 74 119 122t166 48q41 0 116 -27.5t117 -27.5q80 0 117 57l174 -94q-37 -74 -100.5 -126t-136.5 -52 q-55 0 -140 31.5t-125 31.5q-97 0 -151 -75zM424 444q0 -99 42.5 -168t135.5 -69q55 0 101 26.5t75.5 67.5t50 94.5t29 105.5t8.5 101q0 99 -41.5 166.5t-134.5 67.5q-66 0 -119.5 -39t-84 -100t-46.5 -126.5t-16 -126.5z" />
<glyph unicode="&#xf6;" horiz-adv-x="1204" d="M111 422q0 169 76 319t216.5 244t311.5 94q196 0 319 -129t123 -327q0 -127 -44.5 -246t-121.5 -210.5t-190.5 -146.5t-243.5 -55q-198 0 -322 128.5t-124 328.5zM414 444q0 -99 42.5 -168t135.5 -69q68 0 120.5 39t82 100.5t44.5 127t15 128.5q0 46 -9 85.5t-28 74 t-54 54.5t-83 20q-54 0 -99.5 -26t-75.5 -67.5t-51 -94t-30.5 -104.5t-9.5 -100zM428 1366q0 60 44 105t103 45q50 0 82.5 -32t32.5 -81q0 -60 -45.5 -104t-105.5 -44q-47 0 -79 32t-32 79zM821 1366q0 60 45 105t105 45q48 0 81 -32t33 -81q0 -60 -45.5 -105t-105.5 -45 q-47 0 -80 33t-33 80z" />
<glyph unicode="&#xf7;" horiz-adv-x="1021" d="M72 494l37 260h907l-37 -260h-907zM322 141q0 71 55 126t127 55q58 0 97.5 -39.5t39.5 -98.5q0 -71 -55 -125.5t-127 -54.5q-59 0 -98 38.5t-39 98.5zM444 1016q0 71 56 125.5t127 54.5q59 0 98 -38.5t39 -96.5q0 -72 -55 -126t-127 -54q-59 0 -98.5 38.5t-39.5 96.5z " />
<glyph unicode="&#xf8;" horiz-adv-x="1220" d="M119 432q0 126 45 245.5t123.5 210.5t192.5 146.5t243 55.5q49 0 108 -17l132 285h104l-145 -316q120 -57 181.5 -165t61.5 -246q0 -170 -74.5 -319t-214 -243t-311.5 -94q-62 0 -127 19l-104 -227h-105l121 262q-115 58 -173 164t-58 239zM422 455q0 -103 41 -168 l264 549q-16 8 -39 8q-53 0 -98.5 -25.5t-75.5 -67t-51.5 -93.5t-31 -103.5t-9.5 -99.5zM541 227q27 -12 59 -12q55 0 101 26.5t75.5 68.5t50 95.5t29 106t8.5 102.5q0 118 -51 179z" />
<glyph unicode="&#xf9;" horiz-adv-x="1075" d="M76 301q0 39 8 117l92 653h277l-82 -586q-4 -40 -4 -61q0 -145 129 -145q83 0 131 58.5t61 147.5l82 586h277l-152 -1071h-274l20 150q-35 -71 -120.5 -122t-166.5 -51q-145 0 -211.5 87.5t-66.5 236.5zM446 1526h275l61 -258h-223z" />
<glyph unicode="&#xfa;" horiz-adv-x="1075" d="M76 301q0 39 8 117l92 653h277l-82 -586q-4 -40 -4 -61q0 -145 129 -145q83 0 131 58.5t61 147.5l82 586h277l-152 -1071h-274l20 150q-35 -71 -120.5 -122t-166.5 -51q-145 0 -211.5 87.5t-66.5 236.5zM502 1266l133 258h276l-184 -258h-225z" />
<glyph unicode="&#xfb;" horiz-adv-x="1075" d="M76 301q0 39 8 117l92 653h277l-82 -586q-4 -40 -4 -61q0 -145 129 -145q83 0 131 58.5t61 147.5l82 586h277l-152 -1071h-274l20 150q-35 -71 -120.5 -122t-166.5 -51q-145 0 -211.5 87.5t-66.5 236.5zM397 1253l160 275h256l82 -275h-176l-53 138l-88 -138h-181z" />
<glyph unicode="&#xfc;" horiz-adv-x="1075" d="M76 301q0 39 8 117l92 653h277l-82 -586q-4 -40 -4 -61q0 -145 129 -145q83 0 131 58.5t61 147.5l82 586h277l-152 -1071h-274l20 150q-35 -71 -120.5 -122t-166.5 -51q-145 0 -211.5 87.5t-66.5 236.5zM338 1366q0 60 44 105t103 45q50 0 82.5 -32t32.5 -81 q0 -60 -45.5 -104t-105.5 -44q-47 0 -79 32t-32 79zM731 1366q0 60 45 105t105 45q48 0 81 -32t33 -81q0 -60 -45.5 -105t-105.5 -45q-47 0 -80 33t-33 80z" />
<glyph unicode="&#xfd;" horiz-adv-x="1067" d="M-31 -322l125 218q51 -31 105 -31q8 0 16 8q33 7 64 46.5t47.5 78.5t27.5 78l-196 995h297l94 -633l268 633h287q-90 -186 -253 -543t-187 -409q-32 -70 -60 -125t-77.5 -131t-97.5 -126.5t-114 -87t-133 -36.5q-51 0 -110 18.5t-103 46.5zM522 1266l133 258h277 l-184 -258h-226z" />
<glyph unicode="&#xfe;" horiz-adv-x="1200" d="M66 -297l243 1731h271l-62 -437q37 43 120.5 70t149.5 27q93 0 167 -37.5t119 -101t69 -143.5t24 -169t-24 -182.5t-71.5 -179.5t-111.5 -153t-151.5 -107.5t-183.5 -40.5q-84 0 -132 23.5t-102 86.5l-53 -387h-272zM426 338q23 -38 66.5 -62t87.5 -24q88 0 156.5 50 t103 127t34.5 165q0 102 -56.5 172t-155.5 70q-49 0 -99.5 -23.5t-77.5 -60.5z" />
<glyph unicode="&#xff;" horiz-adv-x="1067" d="M-31 -322l125 218q51 -31 105 -31q8 0 16 8q33 7 64 46.5t47.5 78.5t27.5 78l-196 995h297l94 -633l268 633h287q-90 -186 -253 -543t-187 -409q-32 -70 -60 -125t-77.5 -131t-97.5 -126.5t-114 -87t-133 -36.5q-51 0 -110 18.5t-103 46.5zM336 1366q0 60 45 105t104 45 q48 0 81.5 -32t33.5 -81q0 -60 -45.5 -104t-105.5 -44q-47 0 -80 32t-33 79zM731 1366q0 60 45 105t105 45q48 0 80 -32t32 -81q0 -60 -45 -105t-104 -45q-49 0 -81 32.5t-32 80.5z" />
<glyph unicode="&#x152;" horiz-adv-x="1996" d="M94 504q0 150 49.5 289.5t137.5 247t220.5 172.5t286.5 65t275 -98l10 73h901l-39 -278h-610l-29 -205h482l-35 -246h-481l-35 -245h610l-39 -279h-901l10 80q-143 -96 -301 -96q-234 0 -373 143t-139 377zM414 524q0 -59 12 -108.5t37.5 -90.5t71 -64t106.5 -23 q89 0 157 47t105.5 123t55.5 158t18 165q0 46 -7 86.5t-23.5 78t-41.5 64t-64.5 42.5t-88.5 16q-71 0 -130 -32t-96.5 -83t-63.5 -117.5t-37 -132t-11 -129.5z" />
<glyph unicode="&#x153;" horiz-adv-x="1855" d="M111 422q0 169 76 319t216.5 244t311.5 94q221 0 346 -160q163 160 383 160q151 0 249.5 -85t98.5 -232q0 -81 -39 -147t-102 -106.5t-137.5 -62.5t-151.5 -22q-128 0 -213 45q0 -111 51 -183.5t158 -72.5q74 0 154 36.5t133 92.5l67 -209q-69 -78 -186 -122t-228 -44 q-228 0 -350 154q-166 -156 -391 -156q-198 0 -322 128.5t-124 328.5zM414 444q0 -99 42.5 -168t135.5 -69q68 0 120.5 39t82 100.5t44.5 127t15 128.5q0 46 -9 85.5t-28 74t-54 54.5t-83 20q-54 0 -99.5 -26t-75.5 -67.5t-51 -94t-30.5 -104.5t-9.5 -100zM1192 662 q50 -27 135 -27q33 0 64 5.5t62 18t50 38.5t19 61q0 44 -36 69t-83 25q-76 0 -128 -54t-83 -136z" />
<glyph unicode="&#x178;" horiz-adv-x="1189" d="M125 1253h295l215 -462l346 462h295l-533 -723l-73 -530h-293l76 530zM412 1528q0 59 44.5 103t104.5 44q48 0 80.5 -31.5t32.5 -78.5q0 -60 -45.5 -105t-104.5 -45q-47 0 -79.5 33t-32.5 80zM805 1528q0 58 45 102.5t104 44.5q49 0 82 -31.5t33 -78.5q0 -60 -45.5 -105 t-105.5 -45q-48 0 -80.5 32t-32.5 81z" />
<glyph unicode="&#x2c6;" horiz-adv-x="1105" d="M483 1253l160 275h256l82 -275h-176l-53 138l-90 -138h-179z" />
<glyph unicode="&#x2dc;" horiz-adv-x="970" d="M131 1393q40 75 120 122.5t165 47.5q42 0 117 -28t116 -28q42 0 69 12.5t48 45.5l176 -95q-38 -73 -102 -125.5t-138 -52.5q-56 0 -139 32t-123 32q-96 0 -151 -76z" />
<glyph unicode="&#x2000;" horiz-adv-x="860" />
<glyph unicode="&#x2001;" horiz-adv-x="1720" />
<glyph unicode="&#x2002;" horiz-adv-x="860" />
<glyph unicode="&#x2003;" horiz-adv-x="1720" />
<glyph unicode="&#x2004;" horiz-adv-x="573" />
<glyph unicode="&#x2005;" horiz-adv-x="430" />
<glyph unicode="&#x2006;" horiz-adv-x="286" />
<glyph unicode="&#x2007;" horiz-adv-x="286" />
<glyph unicode="&#x2008;" horiz-adv-x="215" />
<glyph unicode="&#x2009;" horiz-adv-x="344" />
<glyph unicode="&#x200a;" horiz-adv-x="95" />
<glyph unicode="&#x2010;" horiz-adv-x="1089" d="M109 442l36 260h842l-37 -260h-841z" />
<glyph unicode="&#x2011;" horiz-adv-x="1089" d="M109 442l36 260h842l-37 -260h-841z" />
<glyph unicode="&#x2012;" horiz-adv-x="1089" d="M109 442l36 260h842l-37 -260h-841z" />
<glyph unicode="&#x2013;" horiz-adv-x="1159" d="M76 449l37 260h1022l-37 -260h-1022z" />
<glyph unicode="&#x2014;" horiz-adv-x="1513" d="M76 449l37 260h1374l-37 -260h-1374z" />
<glyph unicode="&#x2018;" horiz-adv-x="481" d="M109 1034q0 96 72.5 205.5t162.5 144.5l57 -110q-30 -15 -58 -42t-38 -56q61 3 98 -30.5t37 -94.5q0 -74 -57.5 -128.5t-132.5 -54.5q-68 0 -104.5 47.5t-36.5 118.5z" />
<glyph unicode="&#x2019;" horiz-adv-x="481" d="M113 1151q0 67 53.5 122.5t120.5 55.5q75 0 116 -45t41 -121q0 -62 -33 -134.5t-87.5 -131t-112.5 -80.5l-59 111q32 15 60 41t38 55q-62 -3 -99.5 31.5t-37.5 95.5z" />
<glyph unicode="&#x201a;" horiz-adv-x="569" d="M115 211q0 85 65.5 153t151.5 68q92 0 142 -55t50 -148q0 -118 -88.5 -251.5t-197.5 -174.5l-74 136q37 21 71 52t44 62q-74 -3 -119 40t-45 118z" />
<glyph unicode="&#x201c;" horiz-adv-x="1091" d="M109 1085q0 73 27.5 141.5t85.5 117.5t134 49q72 0 126.5 -47.5t54.5 -118.5q0 -87 -60 -151t-147 -64h-11q1 -33 27 -65.5t57 -49.5l-112 -137q-75 32 -128.5 134.5t-53.5 190.5zM616 1085q0 72 27.5 141t85.5 118t133 49q73 0 127.5 -47.5t54.5 -118.5 q0 -87 -59.5 -151t-146.5 -64h-11q1 -33 27 -65.5t57 -49.5l-112 -137q-75 32 -129 134.5t-54 190.5z" />
<glyph unicode="&#x201d;" horiz-adv-x="1046" d="M117 1165q0 93 72 157t165 64q83 0 126.5 -58t43.5 -144q0 -117 -88.5 -251t-197.5 -175l-74 135q38 21 72 52t43 63q-74 -2 -118 41t-44 116zM618 1165q0 93 72.5 157t167.5 64q83 0 126.5 -58t43.5 -144q0 -117 -89 -251t-198 -175l-75 135q37 20 71 51.5t45 63.5 q-74 -2 -119 41t-45 116z" />
<glyph unicode="&#x201e;" horiz-adv-x="1062" d="M100 211q0 86 66 153.5t153 67.5q92 0 142.5 -55t50.5 -148q0 -118 -89.5 -251.5t-197.5 -174.5l-75 136q37 20 71.5 51.5t44.5 62.5q-74 -3 -120 40t-46 118zM604 211q0 85 65.5 153t151.5 68q93 0 144 -55t51 -148q0 -118 -90 -251.5t-199 -174.5l-74 136 q37 20 71.5 51.5t45.5 62.5q-74 -3 -120 40t-46 118z" />
<glyph unicode="&#x2022;" horiz-adv-x="559" d="M121 612q0 91 69 159.5t160 68.5q74 0 123 -48.5t49 -121.5q0 -91 -68 -159.5t-159 -68.5q-74 0 -124 48.5t-50 121.5z" />
<glyph unicode="&#x2026;" horiz-adv-x="1865" d="M106 145q0 88 67 155t155 67q72 0 120 -47.5t48 -118.5q0 -87 -68 -154t-156 -67q-71 0 -118.5 46.5t-47.5 118.5zM764 145q0 88 67.5 155t155.5 67q71 0 118.5 -47.5t47.5 -118.5q0 -88 -66.5 -154.5t-154.5 -66.5q-71 0 -119.5 47t-48.5 118zM1423 145q0 88 67 155 t155 67q72 0 119.5 -47.5t47.5 -118.5q0 -88 -66.5 -154.5t-154.5 -66.5q-72 0 -120 46.5t-48 118.5z" />
<glyph unicode="&#x202f;" horiz-adv-x="344" />
<glyph unicode="&#x2039;" horiz-adv-x="681" d="M76 492l286 428h291l-280 -428l159 -429h-290z" />
<glyph unicode="&#x203a;" horiz-adv-x="681" d="M76 61l280 428l-159 429h290l166 -429l-286 -428h-291z" />
<glyph unicode="&#x205f;" horiz-adv-x="430" />
<glyph unicode="&#x20ac;" horiz-adv-x="1382" d="M90 440l21 135h155q0 37 10 82h-155l18 136h172q75 213 258.5 345t409.5 132q93 0 208 -38t173 -99l-154 -246q-41 42 -112.5 71t-130.5 29q-106 0 -194.5 -51t-139.5 -143h282l-18 -136h-318q-8 -55 -10 -82h316l-19 -135h-278q28 -89 100 -135.5t168 -46.5q66 0 146 27 t130 67l78 -246q-72 -59 -191.5 -95t-219.5 -36q-143 0 -258.5 55t-188 161t-84.5 249h-174z" />
<glyph unicode="&#x25fc;" horiz-adv-x="1075" d="M0 0v1075h1075v-1075h-1075z" />
<glyph unicode="&#xfb03;" horiz-adv-x="1873" d="M109 -369l170 1200h-160l33 240h161q24 165 147.5 283.5t287.5 118.5q64 0 135 -18.5t110 -55.5l-110 -180q-43 22 -101 22q-79 0 -133.5 -46.5t-64.5 -123.5h301h2h157q24 165 147.5 283.5t287.5 118.5q65 0 136 -19t109 -55l-110 -180q-43 22 -101 22q-78 0 -132 -46 t-66 -124h299h4h270l-149 -1071h-277l118 831h-300l-170 -1200h-270l172 1200h-160h-2h-301l-172 -1200h-268z" />
</font>
</defs>
</svg>
